<svg version="1.0" xmlns="http://www.w3.org/2000/svg"
width="330.000000pt" height="310.000000pt" viewBox="0 0 330.000000 310.000000"
preserveAspectRatio="xMidYMid meet">
  
<g transform="translate(0.000000,310.000000) scale(0.100000,-0.100000)"
fill="#ff6d00" stroke="none">
<path d="M1570 2205 l0 -164 -57 -98 c-31 -54 -64 -113 -72 -131 -11 -23 -20 -31
-31 -26 -40 17 -46 14 -75 -38 -16 -29 -42 -73 -57 -98 -15 -25 -35 -61 -46
-80 -11 -19 -28 -50 -38 -67 -19 -32 -19 -33 3 -48 l22 -16 -33 -62 c-73 -136
-101 -176 -116 -171 -8 3 -11 2 -7 -2 7 -7 -74 -64 -91 -64 -4 0 -23 -11 -42
-25 -41 -30 -119 -69 -126 -63 -8 9 8 38 17 32 5 -3 6 2 3 10 -4 10 -1 16 7
16 7 0 10 3 7 6 -6 6 159 299 198 351 13 17 24 37 24 43 0 10 12 31 79 135 14
22 26 45 27 50 1 6 18 36 38 67 20 32 36 61 36 65 0 5 11 24 23 43 13 19 37
60 54 90 81 146 125 215 134 212 6 -1 8 2 4 7 -8 14 92 191 107 191 5 0 8 -74
8 -165z m150 103 c19 -34 47 -83 62 -110 15 -26 24 -48 20 -48 -4 0 -2 -4 3
-8 12 -8 75 -105 75 -115 0 -4 21 -40 46 -81 27 -44 43 -80 38 -87 -4 -7 -3
-10 3 -6 5 4 16 -6 24 -21 8 -15 17 -29 20 -32 4 -3 16 -24 28 -48 12 -24 38
-67 57 -97 18 -30 34 -57 34 -60 0 -3 25 -47 55 -98 30 -50 66 -112 80 -137
15 -25 49 -83 76 -129 27 -46 46 -88 42 -94 -4 -6 -1 -7 7 -2 10 6 12 4 7 -9
-4 -9 -3 -15 2 -12 8 5 31 -35 31 -54 0 -14 -16 -12 -32 3 -7 6 -19 13 -26 15
-7 1 -41 20 -76 42 -35 22 -66 40 -70 40 -20 0 -85 56 -103 88 -11 20 -41 75
-68 121 l-49 83 23 17 22 17 -36 64 c-21 36 -51 90 -67 120 -17 30 -39 69 -49
86 -10 17 -15 35 -11 39 4 5 2 5 -4 2 -7 -4 -14 0 -18 8 -4 12 -10 13 -31 3
-14 -6 -27 -9 -28 -7 -2 2 -34 55 -71 118 l-68 113 -3 162 c-4 207 -1 212 55
114z m425 -1205 c19 -9 31 -21 28 -26 -4 -6 -1 -7 6 -3 7 5 20 2 29 -6 9 -8
52 -34 95 -58 42 -24 77 -47 77 -51 0 -5 -90 -8 -200 -8 -141 0 -200 3 -200
11 0 6 -3 8 -6 5 -4 -3 -26 5 -49 18 -41 25 -44 25 -290 25 l-248 0 -54 -30
-53 -30 -211 0 c-218 0 -235 4 -174 38 17 9 56 32 87 50 32 18 63 30 69 26 8
-4 9 -3 5 4 -4 7 9 19 31 31 37 20 57 20 531 20 435 0 497 -2 527 -16z"/>
<path d="M2256 1332 c-3 -5 1 -9 9 -9 8 0 12 4 9 9 -3 4 -7 8 -9 8 -2 0 -6 -4
-9 -8z"/>
</g>
</svg>
